<svg width="287" height="608" viewBox="0 0 287 608" fill="none" xmlns="http://www.w3.org/2000/svg">
<path d="M0 12C0 5.37257 5.37258 0 12 0H287V608H12C5.37258 608 0 602.627 0 596V12Z" fill="#084298"/>
<rect x="44" y="32" width="40" height="40" rx="20" fill="white"/>
<path d="M63.9795 45.312C64.3955 46.2613 64.6728 47.344 64.8115 48.56C64.9608 49.776 65.0355 51.0667 65.0355 52.432V52.96L65.0035 56H63.7555L63.7875 52.96V52.432C63.7875 51.1413 63.7235 49.9467 63.5955 48.848C63.4675 47.7387 63.2115 46.752 62.8275 45.888L63.9795 45.312Z" fill="#0C0C0C"/>
<line x1="63.5" y1="120" x2="63.5" y2="80" stroke="#7E8288"/>
<path d="M108.403 57C107.806 57 107.273 56.8667 106.803 56.6C106.345 56.3333 105.987 55.9813 105.731 55.544C105.475 55.096 105.347 54.6053 105.347 54.072C105.347 53.976 105.358 53.8213 105.379 53.608C105.411 53.384 105.481 53.016 105.587 52.504C105.694 51.992 105.79 51.544 105.875 51.16L107.283 51.528C106.995 52.7333 106.841 53.5013 106.819 53.832C106.809 53.8853 106.803 53.9547 106.803 54.04C106.803 54.424 106.942 54.728 107.219 54.952C107.497 55.1653 107.891 55.272 108.403 55.272H113.587C113.982 55.272 114.281 55.2027 114.483 55.064C114.697 54.9147 114.803 54.7227 114.803 54.488C114.803 54.2 114.659 53.88 114.371 53.528L111.603 50.2L112.019 48.232L117.475 45.832L118.099 47.4L113.251 49.544L115.475 52.36L115.523 52.424C116.238 53.3413 116.75 53.976 117.059 54.328C117.369 54.6693 117.662 54.9147 117.939 55.064C118.217 55.2027 118.569 55.272 118.995 55.272H119.283L119.379 56.12L119.283 57H118.995C118.377 57 117.859 56.888 117.443 56.664C117.027 56.4293 116.558 56.0187 116.035 55.432C115.854 55.9013 115.555 56.28 115.139 56.568C114.723 56.856 114.201 57 113.571 57H108.403ZM119.123 55.272H119.827C120.254 55.272 120.574 55.1813 120.787 55C121 54.8187 121.107 54.504 121.107 54.056V46.52H122.611V54.056V54.216C122.611 54.6 122.707 54.872 122.899 55.032C123.091 55.192 123.39 55.272 123.795 55.272H124.355L124.435 56.168L124.355 57H123.795C123.464 57 123.128 56.9253 122.787 56.776C122.446 56.6267 122.152 56.4027 121.907 56.104C121.63 56.4027 121.31 56.6267 120.947 56.776C120.595 56.9253 120.248 57 119.907 57H119.123V55.272ZM124.201 55.272H124.633C125.103 55.272 125.391 55.048 125.497 54.6L125.977 52.872C126.212 52.008 126.585 51.336 127.097 50.856C127.609 50.376 128.228 50.136 128.953 50.136C129.529 50.136 130.041 50.3013 130.489 50.632C130.937 50.952 131.284 51.3947 131.529 51.96C131.775 52.5253 131.897 53.144 131.897 53.816C131.897 54.6373 131.775 55.3147 131.529 55.848C131.284 56.3707 130.969 56.7493 130.585 56.984C130.212 57.2187 129.812 57.336 129.385 57.336C128.991 57.336 128.585 57.256 128.169 57.096C127.764 56.9467 127.151 56.664 126.329 56.248C126.105 56.4827 125.844 56.6693 125.545 56.808C125.247 56.936 124.948 57 124.649 57H124.201V55.272ZM127.049 54.76C127.721 55.1013 128.217 55.3307 128.537 55.448C128.857 55.5653 129.151 55.624 129.417 55.624C129.748 55.624 129.999 55.496 130.169 55.24C130.351 54.9733 130.441 54.4987 130.441 53.816C130.441 53.1867 130.308 52.7013 130.041 52.36C129.785 52.008 129.423 51.832 128.953 51.832C128.601 51.832 128.292 51.96 128.025 52.216C127.759 52.4613 127.561 52.8347 127.433 53.336L127.049 54.76ZM145.557 61.048H141.509C140.656 61.048 139.909 60.8613 139.269 60.488C138.629 60.1253 138.133 59.6293 137.781 59C137.429 58.3707 137.253 57.6667 137.253 56.888C137.253 56.0347 137.488 55.2667 137.957 54.584C138.437 53.8907 139.056 53.3893 139.813 53.08C139.504 52.792 139.264 52.4667 139.093 52.104C138.922 51.7307 138.837 51.3413 138.837 50.936C138.837 50.3813 138.97 49.8693 139.237 49.4C139.504 48.9307 139.866 48.5573 140.325 48.28C140.784 48.0027 141.285 47.864 141.829 47.864C142.309 47.864 142.709 47.9333 143.029 48.072C143.36 48.2107 143.77 48.44 144.261 48.76L144.629 49L143.909 50.248C143.301 49.9173 142.88 49.704 142.645 49.608C142.41 49.512 142.133 49.464 141.813 49.464C141.408 49.4747 141.056 49.6187 140.757 49.896C140.469 50.1733 140.325 50.5147 140.325 50.92C140.325 51.4213 140.528 51.8427 140.933 52.184C141.349 52.5147 141.984 52.712 142.837 52.776L144.885 52.792L144.869 54.52L141.509 54.488C141.008 54.488 140.549 54.5893 140.133 54.792C139.728 54.9947 139.408 55.2773 139.173 55.64C138.938 56.0027 138.821 56.4187 138.821 56.888C138.821 57.624 139.056 58.2107 139.525 58.648C139.994 59.096 140.656 59.32 141.509 59.32H145.557V61.048ZM149.175 59.352C149.901 59.352 150.455 59.272 150.839 59.112C151.234 58.952 151.506 58.7013 151.655 58.36C151.805 58.0293 151.879 57.576 151.879 57H150.247C149.319 57 148.573 56.7227 148.007 56.168C147.442 55.6133 147.159 54.84 147.159 53.848C147.159 53.1653 147.287 52.5467 147.543 51.992C147.81 51.4373 148.173 51.0053 148.631 50.696C149.101 50.376 149.634 50.216 150.231 50.216C150.871 50.216 151.426 50.3707 151.895 50.68C152.375 50.9787 152.743 51.4053 152.999 51.96C153.266 52.504 153.399 53.1333 153.399 53.848V55.272H154.279L154.391 56.152L154.279 57H153.399C153.399 58.248 153.063 59.24 152.391 59.976C151.719 60.712 150.647 61.08 149.175 61.08H147.399V59.352H149.175ZM148.647 53.816C148.647 54.3493 148.775 54.7333 149.031 54.968C149.287 55.192 149.693 55.304 150.247 55.304H151.879V53.832C151.879 53.224 151.746 52.7493 151.479 52.408C151.213 52.0667 150.797 51.896 150.231 51.896C149.719 51.896 149.325 52.072 149.047 52.424C148.781 52.7653 148.647 53.2293 148.647 53.816ZM154.123 55.272H155.803C156.251 55.272 156.582 55.1813 156.795 55C157.008 54.808 157.115 54.5467 157.115 54.216C157.115 53.928 157.067 53.5067 156.971 52.952C156.875 52.3973 156.763 51.8533 156.635 51.32L158.091 50.952C158.219 51.4853 158.336 52.0773 158.443 52.728C158.56 53.3787 158.619 53.8907 158.619 54.264C158.619 54.7333 158.512 55.176 158.299 55.592C158.086 56.008 157.771 56.3493 157.355 56.616C156.939 56.872 156.443 57 155.867 57H154.123V55.272ZM155.739 47.336H157.515V49.096H155.739V47.336ZM165.879 59.304C166.604 59.304 167.159 59.224 167.543 59.064C167.937 58.904 168.209 58.6533 168.359 58.312C168.508 57.9813 168.583 57.528 168.583 56.952H166.951C166.023 56.952 165.276 56.6747 164.711 56.12C164.145 55.5653 163.863 54.792 163.863 53.8C163.863 53.1173 163.991 52.4987 164.247 51.944C164.513 51.3893 164.876 50.9573 165.335 50.648C165.804 50.328 166.337 50.168 166.935 50.168C167.575 50.168 168.129 50.3227 168.599 50.632C169.079 50.9307 169.447 51.3573 169.703 51.912C169.969 52.456 170.103 53.0853 170.103 53.8V56.936C170.103 58.184 169.767 59.176 169.095 59.912C168.423 60.6587 167.351 61.032 165.879 61.032H164.103V59.304H165.879ZM165.351 53.768C165.351 54.3013 165.479 54.6853 165.735 54.92C165.991 55.144 166.396 55.256 166.951 55.256H168.583V53.784C168.583 53.176 168.449 52.7013 168.183 52.36C167.916 52.0187 167.5 51.848 166.935 51.848C166.423 51.848 166.028 52.024 165.751 52.376C165.484 52.7173 165.351 53.1813 165.351 53.768ZM181.89 53.656C182.039 54.2533 182.316 54.6747 182.722 54.92C183.127 55.1547 183.623 55.272 184.21 55.272H184.53L184.626 56.12L184.53 57H184.21C183.548 57 182.903 56.8507 182.274 56.552C181.655 56.2427 181.164 55.752 180.802 55.08C180.514 55.496 180.162 55.816 179.746 56.04C179.33 56.2533 178.892 56.36 178.434 56.36C177.911 56.36 177.399 56.216 176.898 55.928C176.418 55.6613 176.044 55.2827 175.778 54.792C175.522 54.3013 175.394 53.7733 175.394 53.208C175.394 52.632 175.527 52.1147 175.794 51.656C175.975 51.3573 176.172 51.1067 176.386 50.904C176.599 50.7013 176.93 50.4773 177.378 50.232C177.826 49.9867 178.466 49.688 179.298 49.336L179.106 48.52L180.578 48.136L181.89 53.656ZM177.106 52.552C176.956 52.7973 176.882 53.0373 176.882 53.272C176.882 53.5067 176.946 53.7307 177.074 53.944C177.202 54.1573 177.372 54.3333 177.586 54.472C177.831 54.6213 178.092 54.696 178.37 54.696C178.626 54.696 178.876 54.6373 179.122 54.52C179.367 54.4027 179.58 54.2373 179.762 54.024C179.879 53.8853 179.964 53.7413 180.018 53.592C180.071 53.432 180.098 53.24 180.098 53.016C180.098 52.9413 180.087 52.7973 180.066 52.584L179.922 51.96L179.666 50.952C178.844 51.2507 178.247 51.528 177.874 51.784C177.5 52.04 177.244 52.296 177.106 52.552ZM184.373 55.272H185.077C185.504 55.272 185.824 55.1813 186.037 55C186.25 54.8187 186.357 54.504 186.357 54.056V46.52H187.861V54.056V54.216C187.861 54.6 187.957 54.872 188.149 55.032C188.341 55.192 188.64 55.272 189.045 55.272H189.605L189.685 56.168L189.605 57H189.045C188.714 57 188.378 56.9253 188.037 56.776C187.696 56.6267 187.402 56.4027 187.157 56.104C186.88 56.4027 186.56 56.6267 186.197 56.776C185.845 56.9253 185.498 57 185.157 57H184.373V55.272ZM189.451 55.272H189.883C190.353 55.272 190.641 55.048 190.747 54.6L191.227 52.872C191.462 52.008 191.835 51.336 192.347 50.856C192.859 50.376 193.478 50.136 194.203 50.136C194.779 50.136 195.291 50.3013 195.739 50.632C196.187 50.952 196.534 51.3947 196.779 51.96C197.025 52.5253 197.147 53.144 197.147 53.816C197.147 54.6373 197.025 55.3147 196.779 55.848C196.534 56.3707 196.219 56.7493 195.835 56.984C195.462 57.2187 195.062 57.336 194.635 57.336C194.241 57.336 193.835 57.256 193.419 57.096C193.014 56.9467 192.401 56.664 191.579 56.248C191.355 56.4827 191.094 56.6693 190.795 56.808C190.497 56.936 190.198 57 189.899 57H189.451V55.272ZM192.299 54.76C192.971 55.1013 193.467 55.3307 193.787 55.448C194.107 55.5653 194.401 55.624 194.667 55.624C194.998 55.624 195.249 55.496 195.419 55.24C195.601 54.9733 195.691 54.4987 195.691 53.816C195.691 53.1867 195.558 52.7013 195.291 52.36C195.035 52.008 194.673 51.832 194.203 51.832C193.851 51.832 193.542 51.96 193.275 52.216C193.009 52.4613 192.811 52.8347 192.683 53.336L192.299 54.76ZM202.288 57C201.21 57 200.448 56.7013 200 56.104C199.562 55.5067 199.344 54.6533 199.344 53.544L199.328 46.52H200.832L200.848 53.544C200.848 54.056 200.88 54.4293 200.944 54.664C201.008 54.888 201.136 55.048 201.328 55.144C201.52 55.2293 201.84 55.272 202.288 55.272H202.64L202.736 56.152L202.64 57H202.288ZM202.482 55.272H203.219C204.413 55.272 205.341 55.1707 206.003 54.968L204.931 53.528C204.515 52.9627 204.157 52.4827 203.859 52.088L204.931 50.28H209.107C209.683 50.28 210.147 50.4773 210.499 50.872C210.851 51.256 211.027 51.7147 211.027 52.248C211.027 52.8453 210.803 53.3627 210.355 53.8C209.992 54.1413 209.629 54.472 209.267 54.792L208.915 55.112C209.224 55.2187 209.656 55.272 210.211 55.272H211.987L212.099 56.168L211.987 57H209.955C209.4 57 208.915 56.936 208.499 56.808C208.093 56.6693 207.715 56.472 207.363 56.216C206.915 56.472 206.381 56.6693 205.763 56.808C205.144 56.936 204.387 57 203.491 57H202.482V55.272ZM205.491 51.848C205.672 52.0827 205.837 52.3013 205.987 52.504C206.147 52.7067 206.291 52.8933 206.419 53.064C206.909 53.7253 207.272 54.2 207.507 54.488L208.611 53.4C208.835 53.1547 209.069 52.92 209.315 52.696C209.464 52.568 209.539 52.4293 209.539 52.28C209.539 52.152 209.485 52.0507 209.379 51.976C209.272 51.8907 209.123 51.848 208.931 51.848H205.491ZM211.826 55.272H212.258C212.728 55.272 213.016 55.048 213.122 54.6L213.602 52.872C213.837 52.008 214.21 51.336 214.722 50.856C215.234 50.376 215.853 50.136 216.578 50.136C217.154 50.136 217.666 50.3013 218.114 50.632C218.562 50.952 218.909 51.3947 219.154 51.96C219.4 52.5253 219.522 53.144 219.522 53.816C219.522 54.6373 219.4 55.3147 219.154 55.848C218.909 56.3707 218.594 56.7493 218.21 56.984C217.837 57.2187 217.437 57.336 217.01 57.336C216.616 57.336 216.21 57.256 215.794 57.096C215.389 56.9467 214.776 56.664 213.954 56.248C213.73 56.4827 213.469 56.6693 213.17 56.808C212.872 56.936 212.573 57 212.274 57H211.826V55.272ZM214.674 54.76C215.346 55.1013 215.842 55.3307 216.162 55.448C216.482 55.5653 216.776 55.624 217.042 55.624C217.373 55.624 217.624 55.496 217.794 55.24C217.976 54.9733 218.066 54.4987 218.066 53.816C218.066 53.1867 217.933 52.7013 217.666 52.36C217.41 52.008 217.048 51.832 216.578 51.832C216.226 51.832 215.917 51.96 215.65 52.216C215.384 52.4613 215.186 52.8347 215.058 53.336L214.674 54.76ZM233.182 61.048H229.134C228.281 61.048 227.534 60.8613 226.894 60.488C226.254 60.1253 225.758 59.6293 225.406 59C225.054 58.3707 224.878 57.6667 224.878 56.888C224.878 56.0347 225.113 55.2667 225.582 54.584C226.062 53.8907 226.681 53.3893 227.438 53.08C227.129 52.792 226.889 52.4667 226.718 52.104C226.547 51.7307 226.462 51.3413 226.462 50.936C226.462 50.3813 226.595 49.8693 226.862 49.4C227.129 48.9307 227.491 48.5573 227.95 48.28C228.409 48.0027 228.91 47.864 229.454 47.864C229.934 47.864 230.334 47.9333 230.654 48.072C230.985 48.2107 231.395 48.44 231.886 48.76L232.254 49L231.534 50.248C230.926 49.9173 230.505 49.704 230.27 49.608C230.035 49.512 229.758 49.464 229.438 49.464C229.033 49.4747 228.681 49.6187 228.382 49.896C228.094 50.1733 227.95 50.5147 227.95 50.92C227.95 51.4213 228.153 51.8427 228.558 52.184C228.974 52.5147 229.609 52.712 230.462 52.776L232.51 52.792L232.494 54.52L229.134 54.488C228.633 54.488 228.174 54.5893 227.758 54.792C227.353 54.9947 227.033 55.2773 226.798 55.64C226.563 56.0027 226.446 56.4187 226.446 56.888C226.446 57.624 226.681 58.2107 227.15 58.648C227.619 59.096 228.281 59.32 229.134 59.32H233.182V61.048ZM236.8 59.352C237.526 59.352 238.08 59.272 238.464 59.112C238.859 58.952 239.131 58.7013 239.28 58.36C239.43 58.0293 239.504 57.576 239.504 57H237.872C236.944 57 236.198 56.7227 235.632 56.168C235.067 55.6133 234.784 54.84 234.784 53.848C234.784 53.1653 234.912 52.5467 235.168 51.992C235.435 51.4373 235.798 51.0053 236.256 50.696C236.726 50.376 237.259 50.216 237.856 50.216C238.496 50.216 239.051 50.3707 239.52 50.68C240 50.9787 240.368 51.4053 240.624 51.96C240.891 52.504 241.024 53.1333 241.024 53.848V55.272H241.904L242.016 56.152L241.904 57H241.024C241.024 58.248 240.688 59.24 240.016 59.976C239.344 60.712 238.272 61.08 236.8 61.08H235.024V59.352H236.8ZM236.272 53.816C236.272 54.3493 236.4 54.7333 236.656 54.968C236.912 55.192 237.318 55.304 237.872 55.304H239.504V53.832C239.504 53.224 239.371 52.7493 239.104 52.408C238.838 52.0667 238.422 51.896 237.856 51.896C237.344 51.896 236.95 52.072 236.672 52.424C236.406 52.7653 236.272 53.2293 236.272 53.816ZM241.748 55.272H243.428C243.876 55.272 244.207 55.1813 244.42 55C244.633 54.808 244.74 54.5467 244.74 54.216C244.74 53.928 244.692 53.5067 244.596 52.952C244.5 52.3973 244.388 51.8533 244.26 51.32L245.716 50.952C245.844 51.4853 245.961 52.0773 246.068 52.728C246.185 53.3787 246.244 53.8907 246.244 54.264C246.244 54.7333 246.137 55.176 245.924 55.592C245.711 56.008 245.396 56.3493 244.98 56.616C244.564 56.872 244.068 57 243.492 57H241.748V55.272ZM243.364 47.336H245.14V49.096H243.364V47.336Z" fill="white"/>
<rect x="44.5" y="128.5" width="39" height="39" rx="19.5" stroke="#989BA0"/>
<path d="M61.9697 142.62C62.2031 143.199 62.3991 143.857 62.5577 144.594C62.6511 145.042 62.8097 145.35 63.0337 145.518C63.2577 145.677 63.5564 145.756 63.9297 145.756C64.2284 145.756 64.4757 145.677 64.6717 145.518C64.8677 145.359 64.9657 145.117 64.9657 144.79C64.9657 144.678 64.9611 144.594 64.9517 144.538L64.6997 142.844L66.0157 142.62L66.2677 144.356C66.2864 144.459 66.2957 144.608 66.2957 144.804C66.2957 145.289 66.1791 145.719 65.9457 146.092C65.7217 146.465 65.4277 146.755 65.0637 146.96C64.6997 147.165 64.3217 147.268 63.9297 147.268C63.5284 147.268 63.1691 147.189 62.8517 147.03C62.8797 147.581 62.8937 148.351 62.8937 149.34L62.8657 152H61.5497L61.5777 149.34V148.794C61.5777 147.683 61.5217 146.68 61.4097 145.784C61.3071 144.879 61.0831 144.011 60.7377 143.18L61.9697 142.62Z" fill="#C4C4C4"/>
<line x1="63.5" y1="216" x2="63.5" y2="176" stroke="#7E8288"/>
<path d="M107.903 153C107.306 153 106.773 152.867 106.303 152.6C105.845 152.333 105.487 151.981 105.231 151.544C104.975 151.096 104.847 150.605 104.847 150.072C104.847 149.976 104.858 149.821 104.879 149.608C104.911 149.384 104.981 149.016 105.087 148.504C105.194 147.992 105.29 147.544 105.375 147.16L106.783 147.528C106.495 148.733 106.341 149.501 106.319 149.832C106.309 149.885 106.303 149.955 106.303 150.04C106.303 150.424 106.442 150.728 106.719 150.952C106.997 151.165 107.391 151.272 107.903 151.272H113.087C113.482 151.272 113.781 151.203 113.983 151.064C114.197 150.915 114.303 150.723 114.303 150.488C114.303 150.2 114.159 149.88 113.871 149.528L111.103 146.2L111.519 144.232L116.975 141.832L117.599 143.4L112.751 145.544L114.975 148.36L115.023 148.424C115.738 149.341 116.25 149.976 116.559 150.328C116.869 150.669 117.162 150.915 117.439 151.064C117.717 151.203 118.069 151.272 118.495 151.272H118.783L118.879 152.12L118.783 153H118.495C117.877 153 117.359 152.888 116.943 152.664C116.527 152.429 116.058 152.019 115.535 151.432C115.354 151.901 115.055 152.28 114.639 152.568C114.223 152.856 113.701 153 113.071 153H107.903ZM118.623 151.272H119.327C119.754 151.272 120.074 151.181 120.287 151C120.5 150.819 120.607 150.504 120.607 150.056V142.52H122.111V150.056V150.216C122.111 150.6 122.207 150.872 122.399 151.032C122.591 151.192 122.89 151.272 123.295 151.272H123.855L123.935 152.168L123.855 153H123.295C122.964 153 122.628 152.925 122.287 152.776C121.946 152.627 121.652 152.403 121.407 152.104C121.13 152.403 120.81 152.627 120.447 152.776C120.095 152.925 119.748 153 119.407 153H118.623V151.272ZM123.701 151.272H124.133C124.603 151.272 124.891 151.048 124.997 150.6L125.477 148.872C125.712 148.008 126.085 147.336 126.597 146.856C127.109 146.376 127.728 146.136 128.453 146.136C129.029 146.136 129.541 146.301 129.989 146.632C130.437 146.952 130.784 147.395 131.029 147.96C131.275 148.525 131.397 149.144 131.397 149.816C131.397 150.637 131.275 151.315 131.029 151.848C130.784 152.371 130.469 152.749 130.085 152.984C129.712 153.219 129.312 153.336 128.885 153.336C128.491 153.336 128.085 153.256 127.669 153.096C127.264 152.947 126.651 152.664 125.829 152.248C125.605 152.483 125.344 152.669 125.045 152.808C124.747 152.936 124.448 153 124.149 153H123.701V151.272ZM126.549 150.76C127.221 151.101 127.717 151.331 128.037 151.448C128.357 151.565 128.651 151.624 128.917 151.624C129.248 151.624 129.499 151.496 129.669 151.24C129.851 150.973 129.941 150.499 129.941 149.816C129.941 149.187 129.808 148.701 129.541 148.36C129.285 148.008 128.923 147.832 128.453 147.832C128.101 147.832 127.792 147.96 127.525 148.216C127.259 148.461 127.061 148.835 126.933 149.336L126.549 150.76ZM139.809 153C139.212 153 138.678 152.867 138.209 152.6C137.75 152.333 137.393 151.981 137.137 151.544C136.881 151.096 136.753 150.605 136.753 150.072C136.753 149.976 136.764 149.821 136.785 149.608C136.838 149.192 137.009 148.376 137.297 147.16L138.689 147.528L138.577 148.04C138.364 148.989 138.246 149.587 138.225 149.832C138.214 149.885 138.209 149.955 138.209 150.04C138.209 150.424 138.348 150.728 138.625 150.952C138.902 151.165 139.297 151.272 139.809 151.272H146.737C147.249 151.272 147.622 151.176 147.857 150.984C148.102 150.792 148.225 150.483 148.225 150.056V147.928H149.729V150.216C149.729 150.6 149.825 150.872 150.017 151.032C150.209 151.192 150.513 151.272 150.929 151.272H151.473L151.569 152.12L151.473 153H150.929C150.588 153 150.23 152.92 149.857 152.76C149.494 152.6 149.18 152.36 148.913 152.04C148.657 152.36 148.332 152.6 147.937 152.76C147.553 152.92 147.153 153 146.737 153H139.809ZM141.217 145.864H142.929V147.56H141.217V145.864ZM144.129 145.864H145.841V147.56H144.129V145.864ZM156.047 147.928V150.216C156.047 150.6 156.143 150.872 156.335 151.032C156.527 151.192 156.825 151.272 157.231 151.272H158.063L158.159 152.184L158.063 153H157.231C156.889 153 156.532 152.925 156.159 152.776C155.796 152.616 155.481 152.381 155.215 152.072C154.959 152.381 154.633 152.616 154.239 152.776C153.855 152.925 153.46 153 153.055 153H151.311V151.272H153.055C153.567 151.272 153.94 151.176 154.175 150.984C154.409 150.792 154.527 150.483 154.527 150.056V147.928H156.047ZM150.607 155.288H152.303V156.984H150.607V155.288ZM153.519 155.288H155.215V156.984H153.519V155.288ZM157.904 151.272H158.64C159.835 151.272 160.763 151.171 161.424 150.968L160.352 149.528C159.936 148.963 159.579 148.483 159.28 148.088L160.352 146.28H164.528C165.104 146.28 165.568 146.477 165.92 146.872C166.272 147.256 166.448 147.715 166.448 148.248C166.448 148.845 166.224 149.363 165.776 149.8C165.414 150.141 165.051 150.472 164.688 150.792L164.336 151.112C164.646 151.219 165.078 151.272 165.632 151.272H167.408L167.52 152.168L167.408 153H165.376C164.822 153 164.336 152.936 163.92 152.808C163.515 152.669 163.136 152.472 162.784 152.216C162.336 152.472 161.803 152.669 161.184 152.808C160.566 152.936 159.808 153 158.912 153H157.904V151.272ZM160.912 147.848C161.094 148.083 161.259 148.301 161.408 148.504C161.568 148.707 161.712 148.893 161.84 149.064C162.331 149.725 162.694 150.2 162.928 150.488L164.032 149.4C164.256 149.155 164.491 148.92 164.736 148.696C164.886 148.568 164.96 148.429 164.96 148.28C164.96 148.152 164.907 148.051 164.8 147.976C164.694 147.891 164.544 147.848 164.352 147.848H160.912ZM167.248 151.272H169.824C170.635 151.272 171.216 151.213 171.568 151.096C171.92 150.979 172.155 150.76 172.272 150.44L170.976 150.376C170.176 150.323 169.525 150.045 169.024 149.544C168.523 149.043 168.272 148.365 168.272 147.512C168.272 146.925 168.4 146.397 168.656 145.928C168.912 145.448 169.253 145.075 169.68 144.808C170.107 144.531 170.571 144.392 171.072 144.392C171.616 144.392 172.101 144.531 172.528 144.808C172.955 145.075 173.285 145.448 173.52 145.928C173.765 146.397 173.888 146.925 173.888 147.512V149.016C173.888 150.307 173.584 151.293 172.976 151.976C172.368 152.659 171.317 153 169.824 153H167.248V151.272ZM168.688 141.448H170.4V143.16H168.688V141.448ZM169.76 147.512C169.76 148.259 170.192 148.653 171.056 148.696L172.416 148.824V147.512C172.416 147.064 172.304 146.712 172.08 146.456C171.856 146.189 171.525 146.056 171.088 146.056C170.672 146.056 170.347 146.189 170.112 146.456C169.877 146.723 169.76 147.075 169.76 147.512ZM171.6 141.448H173.312V143.16H171.6V141.448ZM177.488 155.352C178.213 155.352 178.768 155.272 179.152 155.112C179.547 154.952 179.819 154.701 179.968 154.36C180.117 154.029 180.192 153.576 180.192 153H178.56C177.632 153 176.885 152.723 176.32 152.168C175.755 151.613 175.472 150.84 175.472 149.848C175.472 149.165 175.6 148.547 175.856 147.992C176.123 147.437 176.485 147.005 176.944 146.696C177.413 146.376 177.947 146.216 178.544 146.216C179.184 146.216 179.739 146.371 180.208 146.68C180.688 146.979 181.056 147.405 181.312 147.96C181.579 148.504 181.712 149.133 181.712 149.848V151.272H182.592L182.704 152.152L182.592 153H181.712C181.712 154.248 181.376 155.24 180.704 155.976C180.032 156.712 178.96 157.08 177.488 157.08H175.712V155.352H177.488ZM176.96 149.816C176.96 150.349 177.088 150.733 177.344 150.968C177.6 151.192 178.005 151.304 178.56 151.304H180.192V149.832C180.192 149.224 180.059 148.749 179.792 148.408C179.525 148.067 179.109 147.896 178.544 147.896C178.032 147.896 177.637 148.072 177.36 148.424C177.093 148.765 176.96 149.229 176.96 149.816ZM182.436 151.272H182.868C183.337 151.272 183.625 151.048 183.732 150.6L184.212 148.872C184.446 148.008 184.82 147.336 185.332 146.856C185.844 146.376 186.462 146.136 187.188 146.136C187.764 146.136 188.276 146.301 188.724 146.632C189.172 146.952 189.518 147.395 189.764 147.96C190.009 148.525 190.132 149.144 190.132 149.816C190.132 150.637 190.009 151.315 189.764 151.848C189.518 152.371 189.204 152.749 188.82 152.984C188.446 153.219 188.046 153.336 187.62 153.336C187.225 153.336 186.82 153.256 186.404 153.096C185.998 152.947 185.385 152.664 184.564 152.248C184.34 152.483 184.078 152.669 183.78 152.808C183.481 152.936 183.182 153 182.884 153H182.436V151.272ZM185.284 150.76C185.956 151.101 186.452 151.331 186.772 151.448C187.092 151.565 187.385 151.624 187.652 151.624C187.982 151.624 188.233 151.496 188.404 151.24C188.585 150.973 188.676 150.499 188.676 149.816C188.676 149.187 188.542 148.701 188.276 148.36C188.02 148.008 187.657 147.832 187.188 147.832C186.836 147.832 186.526 147.96 186.26 148.216C185.993 148.461 185.796 148.835 185.668 149.336L185.284 150.76Z" fill="#D7D8DA"/>
<rect x="44.5" y="232.5" width="39" height="39" rx="19.5" stroke="#989BA0"/>
<path d="M61.4268 246.62C61.6974 247.264 61.9074 247.987 62.0568 248.79C62.1314 249.219 62.2668 249.513 62.4628 249.672C62.6681 249.821 62.9388 249.896 63.2748 249.896C63.5361 249.896 63.7508 249.817 63.9188 249.658C64.0961 249.499 64.1848 249.261 64.1848 248.944C64.1848 248.841 64.1801 248.762 64.1708 248.706L63.9468 247.18L65.2628 246.97L65.4868 248.524L65.5008 248.664C65.5754 249.14 65.6874 249.467 65.8368 249.644C65.9861 249.812 66.1914 249.896 66.4528 249.896C66.7234 249.896 66.9241 249.831 67.0548 249.7C67.1948 249.569 67.2648 249.355 67.2648 249.056C67.2648 248.991 67.2554 248.874 67.2368 248.706L67.0128 246.956L68.3288 246.774L68.5528 248.524C68.5714 248.748 68.5808 248.911 68.5808 249.014C68.5808 249.518 68.4828 249.952 68.2868 250.316C68.1001 250.68 67.8434 250.955 67.5168 251.142C67.1994 251.319 66.8494 251.408 66.4668 251.408C65.8321 251.408 65.3234 251.142 64.9408 250.61C64.7261 250.862 64.4741 251.058 64.1848 251.198C63.8954 251.338 63.6014 251.408 63.3028 251.408C62.9388 251.408 62.6121 251.333 62.3228 251.184C62.3414 251.697 62.3508 252.416 62.3508 253.34L62.3228 256H61.0068L61.0348 253.34V252.794C61.0348 251.683 60.9788 250.68 60.8668 249.784C60.7641 248.879 60.5401 248.011 60.1948 247.18L61.4268 246.62Z" fill="#C4C4C4"/>
<line x1="63.5" y1="320" x2="63.5" y2="280" stroke="#7E8288"/>
<path d="M108.263 257C107.665 257 107.132 256.867 106.663 256.6C106.204 256.333 105.847 255.981 105.591 255.544C105.335 255.096 105.207 254.605 105.207 254.072C105.207 253.976 105.217 253.821 105.239 253.608C105.271 253.384 105.34 253.016 105.447 252.504C105.553 251.992 105.649 251.544 105.735 251.16L107.143 251.528C106.855 252.733 106.7 253.501 106.679 253.832C106.668 253.885 106.663 253.955 106.663 254.04C106.663 254.424 106.801 254.728 107.079 254.952C107.356 255.165 107.751 255.272 108.263 255.272H113.447C113.841 255.272 114.14 255.203 114.343 255.064C114.556 254.915 114.663 254.723 114.663 254.488C114.663 254.2 114.519 253.88 114.231 253.528L111.463 250.2L111.879 248.232L117.335 245.832L117.959 247.4L113.111 249.544L115.335 252.36L115.383 252.424C116.097 253.341 116.609 253.976 116.919 254.328C117.228 254.669 117.521 254.915 117.799 255.064C118.076 255.203 118.428 255.272 118.855 255.272H119.143L119.239 256.12L119.143 257H118.855C118.236 257 117.719 256.888 117.303 256.664C116.887 256.429 116.417 256.019 115.895 255.432C115.713 255.901 115.415 256.28 114.999 256.568C114.583 256.856 114.06 257 113.431 257H108.263ZM118.982 255.272H119.687C120.113 255.272 120.433 255.181 120.647 255C120.86 254.819 120.967 254.504 120.967 254.056V246.52H122.471V254.056V254.216C122.471 254.6 122.567 254.872 122.759 255.032C122.951 255.192 123.249 255.272 123.655 255.272H124.215L124.295 256.168L124.215 257H123.655C123.324 257 122.988 256.925 122.647 256.776C122.305 256.627 122.012 256.403 121.767 256.104C121.489 256.403 121.169 256.627 120.807 256.776C120.455 256.925 120.108 257 119.767 257H118.982V255.272ZM124.061 255.272H124.493C124.962 255.272 125.25 255.048 125.357 254.6L125.837 252.872C126.071 252.008 126.445 251.336 126.957 250.856C127.469 250.376 128.087 250.136 128.813 250.136C129.389 250.136 129.901 250.301 130.349 250.632C130.797 250.952 131.143 251.395 131.389 251.96C131.634 252.525 131.757 253.144 131.757 253.816C131.757 254.637 131.634 255.315 131.389 255.848C131.143 256.371 130.829 256.749 130.445 256.984C130.071 257.219 129.671 257.336 129.245 257.336C128.85 257.336 128.445 257.256 128.029 257.096C127.623 256.947 127.01 256.664 126.189 256.248C125.965 256.483 125.703 256.669 125.405 256.808C125.106 256.936 124.807 257 124.509 257H124.061V255.272ZM126.909 254.76C127.581 255.101 128.077 255.331 128.397 255.448C128.717 255.565 129.01 255.624 129.277 255.624C129.607 255.624 129.858 255.496 130.029 255.24C130.21 254.973 130.301 254.499 130.301 253.816C130.301 253.187 130.167 252.701 129.901 252.36C129.645 252.008 129.282 251.832 128.813 251.832C128.461 251.832 128.151 251.96 127.885 252.216C127.618 252.461 127.421 252.835 127.293 253.336L126.909 254.76ZM140.185 257C139.587 257 139.054 256.867 138.585 256.6C138.126 256.333 137.769 255.981 137.513 255.544C137.257 255.096 137.129 254.605 137.129 254.072C137.129 253.976 137.139 253.821 137.161 253.608C137.193 253.384 137.262 253.016 137.368 252.504C137.475 251.992 137.571 251.544 137.657 251.16L139.065 251.528C138.777 252.733 138.622 253.501 138.601 253.832C138.59 253.885 138.585 253.955 138.585 254.04C138.585 254.424 138.723 254.728 139.001 254.952C139.278 255.165 139.673 255.272 140.185 255.272H147.081C147.571 255.272 147.939 255.144 148.185 254.888C148.43 254.632 148.553 254.317 148.553 253.944C148.553 253.549 148.478 253 148.329 252.296C148.19 251.592 148.11 251.192 148.089 251.096L149.529 250.728C149.881 252.221 150.057 253.309 150.057 253.992C150.057 254.472 149.939 254.947 149.705 255.416C149.481 255.875 149.15 256.253 148.713 256.552C148.275 256.851 147.753 257 147.145 257H140.185ZM141.337 249.848H143.033V251.544H141.337V249.848ZM144.233 249.848H145.945V251.544H144.233V249.848ZM155.131 257C154.054 257 153.291 256.701 152.843 256.104C152.406 255.507 152.187 254.653 152.187 253.544L152.171 246.52H153.675L153.691 253.544C153.691 254.056 153.723 254.429 153.787 254.664C153.851 254.888 153.979 255.048 154.171 255.144C154.363 255.229 154.683 255.272 155.131 255.272H155.483L155.579 256.152L155.483 257H155.131ZM159.438 254.28C159.438 254.717 159.636 255.016 160.03 255.176C160.19 254.92 160.516 254.424 161.006 253.688L161.742 252.552C162.286 251.72 162.82 251.123 163.342 250.76C163.876 250.387 164.5 250.2 165.214 250.2C165.844 250.2 166.382 250.36 166.83 250.68C167.289 251 167.636 251.432 167.87 251.976C168.105 252.509 168.222 253.085 168.222 253.704C168.222 254.141 168.158 254.536 168.03 254.888C168.286 255.144 168.697 255.272 169.262 255.272H169.726L169.854 256.152L169.726 257H169.246C168.852 257 168.468 256.92 168.094 256.76C167.732 256.6 167.433 256.392 167.198 256.136C166.889 256.413 166.532 256.627 166.126 256.776C165.721 256.925 165.289 257 164.83 257H160.702C160.382 257 160.03 256.931 159.646 256.792C159.262 256.643 158.926 256.419 158.638 256.12C158.34 256.397 157.993 256.616 157.598 256.776C157.204 256.925 156.814 257 156.43 257H155.278V255.272H156.446C156.905 255.272 157.268 255.192 157.534 255.032C157.801 254.872 157.934 254.621 157.934 254.28V251.928H159.438V254.28ZM164.83 255.272C165.438 255.272 165.902 255.144 166.222 254.888C166.553 254.621 166.718 254.227 166.718 253.704C166.718 253.149 166.596 252.717 166.35 252.408C166.105 252.088 165.721 251.928 165.198 251.928C164.761 251.928 164.398 252.035 164.11 252.248C163.822 252.461 163.454 252.867 163.006 253.464C162.782 253.741 162.436 254.216 161.966 254.888L161.678 255.272H164.83ZM179.304 257C178.728 257 178.216 256.872 177.768 256.616C177.32 256.349 177 255.96 176.808 255.448C175.912 255.949 175.048 256.333 174.216 256.6C173.384 256.867 172.477 257 171.496 257H169.528V255.272H171.496C172.531 255.272 173.469 255.112 174.312 254.792C175.155 254.472 176.141 253.981 177.272 253.32C174.936 252.392 173.555 251.928 173.128 251.928C172.84 251.928 172.611 251.997 172.44 252.136C172.28 252.275 172.125 252.541 171.976 252.936L170.568 252.488C170.824 251.709 171.171 251.139 171.608 250.776C172.056 250.403 172.563 250.216 173.128 250.216C173.523 250.216 174.136 250.371 174.968 250.68C175.8 250.979 176.973 251.443 178.488 252.072L178.792 252.2L179.112 254.04L177.912 254.792C178.221 255.112 178.675 255.272 179.272 255.272H180.632L180.744 256.12L180.632 257H179.304ZM172.456 246.968H174.232V248.728H172.456V246.968ZM187.491 256.008C187.289 256.317 187.011 256.563 186.659 256.744C186.307 256.915 185.923 257 185.507 257C185.123 257 184.739 256.915 184.355 256.744C183.971 256.563 183.678 256.317 183.475 256.008C183.241 256.328 182.947 256.573 182.595 256.744C182.254 256.915 181.875 257 181.459 257H180.451V255.272H181.491C181.961 255.272 182.291 255.176 182.483 254.984C182.686 254.792 182.787 254.467 182.787 254.008V251.928H184.307V253.992C184.307 254.461 184.403 254.792 184.595 254.984C184.787 255.176 185.097 255.272 185.523 255.272C185.95 255.272 186.259 255.176 186.451 254.984C186.654 254.781 186.755 254.451 186.755 253.992V251.928H188.259V253.992C188.259 254.845 188.686 255.272 189.539 255.272C189.955 255.272 190.259 255.176 190.451 254.984C190.643 254.781 190.739 254.451 190.739 253.992V251.928H192.243V254.008C192.243 254.467 192.345 254.792 192.547 254.984C192.75 255.176 193.086 255.272 193.555 255.272H194.595L194.675 256.136L194.595 257H193.571C193.166 257 192.787 256.915 192.435 256.744C192.083 256.573 191.79 256.328 191.555 256.008C191.363 256.317 191.07 256.563 190.675 256.744C190.291 256.915 189.913 257 189.539 257C189.145 257 188.771 256.915 188.419 256.744C188.067 256.573 187.758 256.328 187.491 256.008ZM185.219 248.232H186.931V249.928H185.219V248.232ZM186.755 246.088H188.371V247.704H186.755V246.088ZM188.195 248.232H189.907V249.928H188.195V248.232ZM194.436 255.272H194.868C195.337 255.272 195.625 255.048 195.732 254.6L196.212 252.872C196.446 252.008 196.82 251.336 197.332 250.856C197.844 250.376 198.462 250.136 199.188 250.136C199.764 250.136 200.276 250.301 200.724 250.632C201.172 250.952 201.518 251.395 201.764 251.96C202.009 252.525 202.132 253.144 202.132 253.816C202.132 254.637 202.009 255.315 201.764 255.848C201.518 256.371 201.204 256.749 200.82 256.984C200.446 257.219 200.046 257.336 199.62 257.336C199.225 257.336 198.82 257.256 198.404 257.096C197.998 256.947 197.385 256.664 196.564 256.248C196.34 256.483 196.078 256.669 195.78 256.808C195.481 256.936 195.182 257 194.884 257H194.436V255.272ZM197.284 254.76C197.956 255.101 198.452 255.331 198.772 255.448C199.092 255.565 199.385 255.624 199.652 255.624C199.982 255.624 200.233 255.496 200.404 255.24C200.585 254.973 200.676 254.499 200.676 253.816C200.676 253.187 200.542 252.701 200.276 252.36C200.02 252.008 199.657 251.832 199.188 251.832C198.836 251.832 198.526 251.96 198.26 252.216C197.993 252.461 197.796 252.835 197.668 253.336L197.284 254.76Z" fill="#D7D8DA"/>
<rect x="44.5" y="336.5" width="39" height="39" rx="19.5" stroke="#989BA0"/>
<path d="M61.179 350.62C61.4404 351.245 61.6504 351.969 61.809 352.79C61.893 353.173 62.005 353.476 62.145 353.7C62.285 353.924 62.481 354.101 62.733 354.232C62.5184 353.859 62.411 353.457 62.411 353.028C62.411 352.543 62.5277 352.095 62.761 351.684C62.9944 351.273 63.307 350.947 63.699 350.704C64.1004 350.461 64.539 350.34 65.015 350.34C65.435 350.34 65.785 350.401 66.065 350.522C66.3544 350.643 66.7137 350.844 67.143 351.124L67.465 351.334L66.835 352.426C66.3217 352.146 65.9577 351.964 65.743 351.88C65.5284 351.787 65.281 351.74 65.001 351.74C64.6464 351.749 64.3384 351.875 64.077 352.118C63.825 352.361 63.699 352.659 63.699 353.014C63.699 353.481 63.8997 353.863 64.301 354.162C64.7024 354.461 65.3184 354.624 66.149 354.652H67.213V356.136C65.8224 356.136 64.735 356.085 63.951 355.982C63.1764 355.87 62.551 355.651 62.075 355.324C62.0937 355.8 62.103 356.472 62.103 357.34L62.075 360H60.759L60.787 357.34V356.794C60.787 355.683 60.731 354.68 60.619 353.784C60.5164 352.879 60.2924 352.011 59.947 351.18L61.179 350.62Z" fill="#C4C4C4"/>
<line x1="63.5" y1="424" x2="63.5" y2="384" stroke="#7E8288"/>
<path d="M108.606 361C108.009 361 107.476 360.867 107.006 360.6C106.548 360.333 106.19 359.981 105.934 359.544C105.678 359.096 105.55 358.605 105.55 358.072C105.55 357.976 105.561 357.821 105.582 357.608C105.614 357.384 105.684 357.016 105.79 356.504C105.897 355.992 105.993 355.544 106.078 355.16L107.486 355.528C107.198 356.733 107.044 357.501 107.022 357.832C107.012 357.885 107.006 357.955 107.006 358.04C107.006 358.424 107.145 358.728 107.422 358.952C107.7 359.165 108.094 359.272 108.606 359.272H115.502C115.993 359.272 116.361 359.144 116.606 358.888C116.852 358.632 116.974 358.317 116.974 357.944C116.974 357.549 116.9 357 116.75 356.296C116.612 355.592 116.532 355.192 116.51 355.096L117.95 354.728C118.302 356.221 118.478 357.309 118.478 357.992C118.478 358.472 118.361 358.947 118.126 359.416C117.902 359.875 117.572 360.253 117.134 360.552C116.697 360.851 116.174 361 115.566 361H108.606ZM109.758 353.848H111.454V355.544H109.758V353.848ZM112.654 353.848H114.366V355.544H112.654V353.848ZM123.553 361C122.476 361 121.713 360.701 121.265 360.104C120.828 359.507 120.609 358.653 120.609 357.544L120.593 350.52H122.097L122.113 357.544C122.113 358.056 122.145 358.429 122.209 358.664C122.273 358.888 122.401 359.048 122.593 359.144C122.785 359.229 123.105 359.272 123.553 359.272H123.905L124.001 360.152L123.905 361H123.553ZM123.748 359.272H125.428C125.876 359.272 126.207 359.181 126.42 359C126.633 358.808 126.74 358.547 126.74 358.216C126.74 357.928 126.692 357.507 126.596 356.952C126.5 356.397 126.388 355.853 126.26 355.32L127.716 354.952C127.844 355.485 127.961 356.077 128.068 356.728C128.185 357.379 128.244 357.891 128.244 358.264C128.244 358.733 128.137 359.176 127.924 359.592C127.711 360.008 127.396 360.349 126.98 360.616C126.564 360.872 126.068 361 125.492 361H123.748V359.272ZM125.364 351.336H127.14V353.096H125.364V351.336ZM133.272 361C132.195 361 131.432 360.701 130.984 360.104C130.547 359.507 130.328 358.653 130.328 357.544L130.312 350.52H131.816L131.832 357.544C131.832 358.056 131.864 358.429 131.928 358.664C131.992 358.888 132.12 359.048 132.312 359.144C132.504 359.229 132.824 359.272 133.272 359.272H133.624L133.72 360.152L133.624 361H133.272ZM140.956 351.4L136.108 353.544L138.332 356.36L138.38 356.424C139.084 357.331 139.596 357.96 139.916 358.312C140.236 358.664 140.535 358.915 140.812 359.064C141.09 359.203 141.436 359.272 141.852 359.272H142.156L142.252 360.12L142.156 361H141.852C141.244 361 140.727 360.888 140.3 360.664C139.884 360.429 139.415 360.024 138.892 359.448C138.711 359.917 138.412 360.296 137.996 360.584C137.58 360.861 137.058 361 136.428 361H133.404V359.272H136.444C136.85 359.272 137.154 359.203 137.356 359.064C137.57 358.925 137.676 358.733 137.676 358.488C137.676 358.179 137.532 357.859 137.244 357.528L134.46 354.2L134.892 352.232L140.348 349.832L140.956 351.4ZM141.998 359.272H142.43C142.899 359.272 143.187 359.048 143.294 358.6L143.774 356.872C144.009 356.008 144.382 355.336 144.894 354.856C145.406 354.376 146.025 354.136 146.75 354.136C147.326 354.136 147.838 354.301 148.286 354.632C148.734 354.952 149.081 355.395 149.326 355.96C149.571 356.525 149.694 357.144 149.694 357.816C149.694 358.637 149.571 359.315 149.326 359.848C149.081 360.371 148.766 360.749 148.382 360.984C148.009 361.219 147.609 361.336 147.182 361.336C146.787 361.336 146.382 361.256 145.966 361.096C145.561 360.947 144.947 360.664 144.126 360.248C143.902 360.483 143.641 360.669 143.342 360.808C143.043 360.936 142.745 361 142.446 361H141.998V359.272ZM144.846 358.76C145.518 359.101 146.014 359.331 146.334 359.448C146.654 359.565 146.947 359.624 147.214 359.624C147.545 359.624 147.795 359.496 147.966 359.24C148.147 358.973 148.238 358.499 148.238 357.816C148.238 357.187 148.105 356.701 147.838 356.36C147.582 356.008 147.219 355.832 146.75 355.832C146.398 355.832 146.089 355.96 145.822 356.216C145.555 356.461 145.358 356.835 145.23 357.336L144.846 358.76ZM151.939 350.52H153.443L153.459 361H151.955L151.939 350.52ZM157.363 363.304C158.088 363.304 158.643 363.224 159.027 363.064C159.422 362.904 159.694 362.653 159.843 362.312C159.992 361.981 160.067 361.528 160.067 360.952H158.435C157.507 360.952 156.76 360.675 156.195 360.12C155.63 359.565 155.347 358.792 155.347 357.8C155.347 357.117 155.475 356.499 155.731 355.944C155.998 355.389 156.36 354.957 156.819 354.648C157.288 354.328 157.822 354.168 158.419 354.168C159.059 354.168 159.614 354.323 160.083 354.632C160.563 354.931 160.931 355.357 161.187 355.912C161.454 356.456 161.587 357.085 161.587 357.8V360.936C161.587 362.184 161.251 363.176 160.579 363.912C159.907 364.659 158.835 365.032 157.363 365.032H155.587V363.304H157.363ZM156.835 357.768C156.835 358.301 156.963 358.685 157.219 358.92C157.475 359.144 157.88 359.256 158.435 359.256H160.067V357.784C160.067 357.176 159.934 356.701 159.667 356.36C159.4 356.019 158.984 355.848 158.419 355.848C157.907 355.848 157.512 356.024 157.235 356.376C156.968 356.717 156.835 357.181 156.835 357.768ZM169.95 361C169.353 361 168.819 360.867 168.35 360.6C167.891 360.333 167.534 359.981 167.278 359.544C167.022 359.096 166.894 358.605 166.894 358.072C166.894 357.976 166.905 357.821 166.926 357.608C166.958 357.384 167.027 357.016 167.134 356.504C167.241 355.992 167.337 355.544 167.422 355.16L168.83 355.528C168.542 356.733 168.387 357.501 168.366 357.832C168.355 357.885 168.35 357.955 168.35 358.04C168.35 358.424 168.489 358.728 168.766 358.952C169.043 359.165 169.438 359.272 169.95 359.272H176.846C177.337 359.272 177.705 359.144 177.95 358.888C178.195 358.632 178.318 358.317 178.318 357.944C178.318 357.549 178.243 357 178.094 356.296C177.955 355.592 177.875 355.192 177.854 355.096L179.294 354.728C179.646 356.221 179.822 357.309 179.822 357.992C179.822 358.472 179.705 358.947 179.47 359.416C179.246 359.875 178.915 360.253 178.478 360.552C178.041 360.851 177.518 361 176.91 361H169.95ZM171.102 353.848H172.798V355.544H171.102V353.848ZM173.998 353.848H175.71V355.544H173.998V353.848ZM182.001 350.52H183.505L183.521 361H182.017L182.001 350.52ZM188.688 355.928V358.216C188.688 358.6 188.784 358.872 188.976 359.032C189.168 359.192 189.472 359.272 189.888 359.272H190.096L190.192 360.152L190.096 361H189.888C189.397 361 188.997 360.872 188.688 360.616C188.656 362.035 188.267 363.123 187.52 363.88C186.773 364.648 185.712 365.032 184.336 365.032H183.328V363.304H184.336C185.029 363.304 185.584 363.208 186 363.016C186.416 362.835 186.715 362.536 186.896 362.12C187.088 361.715 187.184 361.155 187.184 360.44V355.928H188.688ZM186.96 352.04H188.736V353.8H186.96V352.04ZM194.672 355.928V358.216C194.672 358.6 194.768 358.872 194.96 359.032C195.152 359.192 195.45 359.272 195.856 359.272H196.688L196.784 360.184L196.688 361H195.856C195.514 361 195.157 360.925 194.784 360.776C194.421 360.616 194.106 360.381 193.84 360.072C193.584 360.381 193.258 360.616 192.864 360.776C192.48 360.925 192.085 361 191.68 361H189.936V359.272H191.68C192.192 359.272 192.565 359.176 192.8 358.984C193.034 358.792 193.152 358.483 193.152 358.056V355.928H194.672ZM190.336 363.288H192.048V364.984H190.336V363.288ZM193.248 363.288H194.96V364.984H193.248V363.288ZM196.529 359.272H197.377V357.848C197.377 356.643 197.66 355.699 198.225 355.016C198.791 354.323 199.569 353.976 200.561 353.976C201.116 353.976 201.628 354.125 202.097 354.424C202.577 354.712 202.961 355.112 203.249 355.624C203.537 356.136 203.681 356.712 203.681 357.352C203.681 357.555 203.665 357.763 203.633 357.976C203.473 358.979 202.951 359.731 202.065 360.232C201.18 360.723 200.119 360.979 198.881 361C198.892 361.779 199.137 362.355 199.617 362.728C200.097 363.112 200.844 363.32 201.857 363.352V362.328C201.857 361.72 201.985 361.187 202.241 360.728C202.508 360.259 202.849 359.901 203.265 359.656C203.692 359.4 204.135 359.272 204.593 359.272H205.425L205.521 360.12L205.425 361H204.625C204.252 361 203.948 361.117 203.713 361.352C203.479 361.587 203.361 361.939 203.361 362.408V363.64L202.081 365.064C200.673 365.064 199.537 364.717 198.673 364.024C197.82 363.331 197.388 362.323 197.377 361H196.529V359.272ZM198.881 359.272C199.809 359.261 200.567 359.128 201.153 358.872C201.74 358.605 202.076 358.221 202.161 357.72C202.193 357.539 202.209 357.379 202.209 357.24C202.209 356.739 202.055 356.349 201.745 356.072C201.447 355.795 201.052 355.656 200.561 355.656C199.975 355.656 199.548 355.832 199.281 356.184C199.015 356.536 198.881 357.091 198.881 357.848V359.272ZM214.976 361C214.4 361 213.888 360.872 213.44 360.616C212.992 360.349 212.672 359.96 212.48 359.448C211.584 359.949 210.72 360.333 209.888 360.6C209.056 360.867 208.149 361 207.168 361H205.2V359.272H207.168C208.202 359.272 209.141 359.112 209.984 358.792C210.826 358.472 211.813 357.981 212.944 357.32C210.608 356.392 209.226 355.928 208.8 355.928C208.512 355.928 208.282 355.997 208.112 356.136C207.952 356.275 207.797 356.541 207.648 356.936L206.24 356.488C206.496 355.709 206.842 355.139 207.28 354.776C207.728 354.403 208.234 354.216 208.8 354.216C209.194 354.216 209.808 354.371 210.64 354.68C211.472 354.979 212.645 355.443 214.16 356.072L214.464 356.2L214.784 358.04L213.584 358.792C213.893 359.112 214.346 359.272 214.944 359.272H216.304L216.416 360.12L216.304 361H214.976ZM209.712 362.92H211.488V364.68H209.712V362.92ZM216.123 359.272H218.155C219.168 359.272 219.675 358.931 219.675 358.248C219.675 357.971 219.627 357.544 219.531 356.968C219.435 356.381 219.328 355.832 219.211 355.32L220.667 354.952C220.795 355.485 220.912 356.077 221.019 356.728C221.136 357.379 221.195 357.891 221.195 358.264C221.195 358.733 221.083 359.181 220.859 359.608C220.635 360.024 220.299 360.36 219.851 360.616C219.403 360.872 218.854 361 218.203 361H216.123V359.272ZM216.747 351.4H218.443V353.096H216.747V351.4ZM219.659 351.4H221.355V353.096H219.659V351.4Z" fill="#D7D8DA"/>
<rect x="44.5" y="440.5" width="39" height="39" rx="19.5" stroke="#989BA0"/>
<path d="M64.3404 460.892C64.4151 461.191 64.4524 461.461 64.4524 461.704C64.4524 461.863 64.4384 462.021 64.4104 462.18C64.4851 462.329 64.5971 462.446 64.7464 462.53C64.8958 462.614 65.0778 462.656 65.2924 462.656C65.6098 462.656 65.8618 462.553 66.0484 462.348C66.2444 462.133 66.3424 461.811 66.3424 461.382C66.3238 460.738 66.0764 460.005 65.6004 459.184C65.1338 458.363 64.4431 457.518 63.5284 456.65C62.7351 457.518 62.1424 458.349 61.7504 459.142C61.3584 459.926 61.1624 460.626 61.1624 461.242C61.1624 462.166 61.4984 462.628 62.1704 462.628C62.5064 462.628 62.7771 462.53 62.9824 462.334C63.1878 462.129 63.2904 461.835 63.2904 461.452C63.2904 461.396 63.2811 461.284 63.2624 461.116L64.3404 460.892ZM59.8884 461.298C59.8884 460.505 60.1124 459.627 60.5604 458.666C61.0178 457.705 61.6804 456.748 62.5484 455.796L62.0864 455.432L62.9264 454.298C63.9344 455.082 64.7884 455.903 65.4884 456.762C66.1884 457.611 66.7111 458.437 67.0564 459.24C67.4111 460.043 67.5884 460.78 67.5884 461.452C67.5884 461.993 67.4764 462.46 67.2524 462.852C67.0378 463.244 66.7484 463.543 66.3844 463.748C66.0298 463.944 65.6471 464.042 65.2364 464.042C64.9564 464.042 64.6858 463.986 64.4244 463.874C64.1724 463.753 63.9531 463.589 63.7664 463.384C63.5611 463.589 63.3138 463.748 63.0244 463.86C62.7444 463.972 62.4504 464.028 62.1424 464.028C61.7504 464.028 61.3818 463.925 61.0364 463.72C60.6911 463.505 60.4111 463.193 60.1964 462.782C59.9911 462.362 59.8884 461.867 59.8884 461.298Z" fill="#C4C4C4"/>
<line x1="63.5" y1="528" x2="63.5" y2="488" stroke="#7E8288"/>
<path d="M107.31 460.888C106.691 462.243 106.382 463.363 106.382 464.248C106.382 465.187 106.606 465.928 107.054 466.472C107.513 467.027 108.206 467.304 109.134 467.304H110.75C111.55 467.304 112.179 467.197 112.638 466.984C113.097 466.771 113.326 466.499 113.326 466.168C113.347 465.869 113.155 465.624 112.75 465.432C112.121 465.144 111.177 465 109.918 465V463.272H115.23L115.326 464.12L115.23 465H114.43C114.707 465.245 114.846 465.619 114.846 466.12C114.835 466.611 114.681 467.075 114.382 467.512C114.083 467.96 113.625 468.323 113.006 468.6C112.398 468.888 111.646 469.032 110.75 469.032H109.134C108.259 469.032 107.497 468.813 106.846 468.376C106.206 467.949 105.715 467.368 105.374 466.632C105.043 465.907 104.878 465.117 104.878 464.264C104.878 463.667 104.979 463.011 105.182 462.296C105.385 461.571 105.641 460.867 105.95 460.184L107.31 460.888ZM115.076 463.272H115.78C116.207 463.272 116.527 463.181 116.74 463C116.954 462.819 117.06 462.504 117.06 462.056V454.52H118.564V462.056V462.216C118.564 462.6 118.66 462.872 118.852 463.032C119.044 463.192 119.343 463.272 119.748 463.272H120.308L120.388 464.168L120.308 465H119.748C119.418 465 119.082 464.925 118.74 464.776C118.399 464.627 118.106 464.403 117.86 464.104C117.583 464.403 117.263 464.627 116.9 464.776C116.548 464.925 116.202 465 115.86 465H115.076V463.272ZM124.89 459.928V462.216C124.89 462.6 124.986 462.872 125.178 463.032C125.37 463.192 125.669 463.272 126.074 463.272H126.906L127.002 464.184L126.906 465H126.074C125.733 465 125.376 464.925 125.002 464.776C124.64 464.616 124.325 464.381 124.058 464.072C123.802 464.381 123.477 464.616 123.082 464.776C122.698 464.925 122.304 465 121.898 465H120.154V463.272H121.898C122.41 463.272 122.784 463.176 123.018 462.984C123.253 462.792 123.37 462.483 123.37 462.056V459.928H124.89ZM119.45 467.288H121.146V468.984H119.45V467.288ZM122.362 467.288H124.058V468.984H122.362V467.288ZM126.748 463.272H127.18C127.649 463.272 127.937 463.048 128.044 462.6L128.524 460.872C128.759 460.008 129.132 459.336 129.644 458.856C130.156 458.376 130.775 458.136 131.5 458.136C132.076 458.136 132.588 458.301 133.036 458.632C133.484 458.952 133.831 459.395 134.076 459.96C134.321 460.525 134.444 461.144 134.444 461.816C134.444 462.221 134.476 462.531 134.54 462.744C134.615 462.947 134.721 463.085 134.86 463.16C135.009 463.235 135.212 463.272 135.468 463.272H135.644L135.74 464.12L135.644 465H135.468C134.753 465 134.193 464.781 133.788 464.344C133.553 464.675 133.271 464.92 132.94 465.08C132.62 465.251 132.284 465.336 131.932 465.336C131.537 465.336 131.132 465.256 130.716 465.096C130.311 464.947 129.697 464.664 128.876 464.248C128.652 464.483 128.391 464.669 128.092 464.808C127.793 464.936 127.495 465 127.196 465H126.748V463.272ZM129.596 462.76C130.268 463.101 130.764 463.331 131.084 463.448C131.404 463.565 131.697 463.624 131.964 463.624C132.295 463.624 132.545 463.496 132.716 463.24C132.897 462.973 132.988 462.499 132.988 461.816C132.988 461.187 132.855 460.701 132.588 460.36C132.332 460.008 131.969 459.832 131.5 459.832C131.148 459.832 130.839 459.96 130.572 460.216C130.305 460.461 130.108 460.835 129.98 461.336L129.596 462.76ZM143.035 455.4L138.187 457.544L140.411 460.36L140.459 460.424C141.163 461.331 141.675 461.96 141.995 462.312C142.315 462.664 142.613 462.915 142.891 463.064C143.168 463.203 143.515 463.272 143.931 463.272H144.235L144.331 464.12L144.235 465H143.931C143.323 465 142.805 464.888 142.379 464.664C141.963 464.429 141.493 464.024 140.971 463.448C140.789 463.917 140.491 464.296 140.075 464.584C139.659 464.861 139.136 465 138.507 465H135.482V463.272H138.523C138.928 463.272 139.232 463.203 139.435 463.064C139.648 462.925 139.755 462.733 139.755 462.488C139.755 462.179 139.611 461.859 139.323 461.528L136.539 458.2L136.971 456.232L142.427 453.832L143.035 455.4ZM144.076 463.272H146.108C147.122 463.272 147.628 462.931 147.628 462.248C147.628 461.971 147.58 461.544 147.484 460.968C147.388 460.381 147.282 459.832 147.164 459.32L148.62 458.952C148.748 459.485 148.866 460.077 148.972 460.728C149.09 461.379 149.148 461.891 149.148 462.264C149.148 462.733 149.036 463.181 148.812 463.608C148.588 464.024 148.252 464.36 147.804 464.616C147.356 464.872 146.807 465 146.156 465H144.076V463.272ZM144.7 455.4H146.396V457.096H144.7V455.4ZM147.612 455.4H149.308V457.096H147.612V455.4ZM157.513 465C156.915 465 156.382 464.867 155.913 464.6C155.454 464.333 155.097 463.981 154.841 463.544C154.585 463.096 154.457 462.605 154.457 462.072C154.457 461.976 154.467 461.821 154.489 461.608C154.521 461.384 154.59 461.016 154.697 460.504C154.803 459.992 154.899 459.544 154.985 459.16L156.393 459.528C156.105 460.733 155.95 461.501 155.929 461.832C155.918 461.885 155.913 461.955 155.913 462.04C155.913 462.424 156.051 462.728 156.329 462.952C156.606 463.165 157.001 463.272 157.513 463.272H164.409C164.899 463.272 165.267 463.144 165.513 462.888C165.758 462.632 165.881 462.317 165.881 461.944C165.881 461.549 165.806 461 165.657 460.296C165.518 459.592 165.438 459.192 165.417 459.096L166.857 458.728C167.209 460.221 167.385 461.309 167.385 461.992C167.385 462.472 167.267 462.947 167.033 463.416C166.809 463.875 166.478 464.253 166.041 464.552C165.603 464.851 165.081 465 164.473 465H157.513ZM158.665 457.848H160.361V459.544H158.665V457.848ZM161.561 457.848H163.273V459.544H161.561V457.848ZM172.46 465C171.382 465 170.62 464.701 170.172 464.104C169.734 463.507 169.516 462.653 169.516 461.544L169.5 454.52H171.004L171.02 461.544C171.02 462.056 171.052 462.429 171.116 462.664C171.18 462.888 171.308 463.048 171.5 463.144C171.692 463.229 172.012 463.272 172.46 463.272H172.812L172.908 464.152L172.812 465H172.46ZM182.366 465C181.79 465 181.278 464.872 180.83 464.616C180.382 464.349 180.062 463.96 179.87 463.448C178.974 463.949 178.11 464.333 177.278 464.6C176.446 464.867 175.54 465 174.558 465H172.59V463.272H174.558C175.593 463.272 176.532 463.112 177.374 462.792C178.217 462.472 179.204 461.981 180.334 461.32C177.998 460.392 176.617 459.928 176.19 459.928C175.902 459.928 175.673 459.997 175.502 460.136C175.342 460.275 175.188 460.541 175.038 460.936L173.63 460.488C173.886 459.709 174.233 459.139 174.67 458.776C175.118 458.403 175.625 458.216 176.19 458.216C176.585 458.216 177.198 458.371 178.03 458.68C178.862 458.979 180.036 459.443 181.55 460.072L181.854 460.2L182.174 462.04L180.974 462.792C181.284 463.112 181.737 463.272 182.334 463.272H183.694L183.806 464.12L183.694 465H182.366ZM188.25 459.928V462.216C188.25 462.6 188.346 462.872 188.538 463.032C188.73 463.192 189.028 463.272 189.434 463.272H190.266L190.362 464.184L190.266 465H189.434C189.092 465 188.735 464.925 188.362 464.776C187.999 464.616 187.684 464.381 187.418 464.072C187.162 464.381 186.836 464.616 186.442 464.776C186.058 464.925 185.663 465 185.258 465H183.514V463.272H185.258C185.77 463.272 186.143 463.176 186.378 462.984C186.612 462.792 186.73 462.483 186.73 462.056V459.928H188.25ZM182.81 467.288H184.506V468.984H182.81V467.288ZM185.722 467.288H187.418V468.984H185.722V467.288ZM194.268 462.28C194.268 462.717 194.465 463.016 194.86 463.176C195.02 462.92 195.345 462.424 195.836 461.688L196.572 460.552C197.116 459.72 197.649 459.123 198.172 458.76C198.705 458.387 199.329 458.2 200.044 458.2C200.673 458.2 201.212 458.36 201.66 458.68C202.118 459 202.465 459.432 202.7 459.976C202.934 460.509 203.052 461.085 203.052 461.704C203.052 462.355 202.902 462.931 202.604 463.432C202.305 463.923 201.894 464.307 201.372 464.584C200.86 464.861 200.289 465 199.66 465H195.532C195.212 465 194.86 464.931 194.476 464.792C194.092 464.643 193.761 464.419 193.484 464.12C193.185 464.397 192.833 464.616 192.428 464.776C192.033 464.925 191.644 465 191.26 465H190.107V463.272H191.276C191.734 463.272 192.097 463.192 192.364 463.032C192.63 462.872 192.764 462.621 192.764 462.28V459.928H194.268V462.28ZM199.66 463.272C200.268 463.272 200.737 463.144 201.068 462.888C201.398 462.621 201.564 462.227 201.564 461.704C201.564 461.149 201.436 460.717 201.18 460.408C200.934 460.088 200.55 459.928 200.028 459.928C199.59 459.928 199.228 460.035 198.94 460.248C198.662 460.451 198.294 460.856 197.836 461.464C197.718 461.603 197.441 461.981 197.004 462.6C196.684 463.048 196.524 463.272 196.524 463.272H199.66ZM199.036 455.016H200.812V456.776H199.036V455.016ZM206.175 467.352C206.901 467.352 207.455 467.272 207.839 467.112C208.234 466.952 208.506 466.701 208.655 466.36C208.805 466.029 208.879 465.576 208.879 465H207.247C206.319 465 205.573 464.723 205.007 464.168C204.442 463.613 204.159 462.84 204.159 461.848C204.159 461.165 204.287 460.547 204.543 459.992C204.81 459.437 205.173 459.005 205.631 458.696C206.101 458.376 206.634 458.216 207.231 458.216C207.871 458.216 208.426 458.371 208.895 458.68C209.375 458.979 209.743 459.405 209.999 459.96C210.266 460.504 210.399 461.133 210.399 461.848V463.272H211.279L211.391 464.152L211.279 465H210.399C210.399 466.248 210.063 467.24 209.391 467.976C208.719 468.712 207.647 469.08 206.175 469.08H204.399V467.352H206.175ZM205.647 461.816C205.647 462.349 205.775 462.733 206.031 462.968C206.287 463.192 206.693 463.304 207.247 463.304H208.879V461.832C208.879 461.224 208.746 460.749 208.479 460.408C208.213 460.067 207.797 459.896 207.231 459.896C206.719 459.896 206.325 460.072 206.047 460.424C205.781 460.765 205.647 461.229 205.647 461.816ZM211.123 463.272H213.155C214.168 463.272 214.675 462.931 214.675 462.248C214.675 461.971 214.627 461.544 214.531 460.968C214.435 460.381 214.328 459.832 214.211 459.32L215.667 458.952C215.795 459.485 215.912 460.077 216.019 460.728C216.136 461.379 216.195 461.891 216.195 462.264C216.195 462.733 216.083 463.181 215.859 463.608C215.635 464.024 215.299 464.36 214.851 464.616C214.403 464.872 213.854 465 213.203 465H211.123V463.272ZM211.747 455.4H213.443V457.096H211.747V455.4ZM214.659 455.4H216.355V457.096H214.659V455.4Z" fill="#D7D8DA"/>
<rect x="44.5" y="536.5" width="39" height="39" rx="19.5" stroke="#989BA0"/>
<path d="M67.4349 554.316C66.8562 554.689 66.3569 555.072 65.9369 555.464C65.5262 555.856 65.1762 556.243 64.8869 556.626C64.6069 556.999 64.2102 557.559 63.6969 558.306L62.3109 560.336L61.2189 559.566L62.6189 557.55C62.7682 557.345 62.8755 557.191 62.9409 557.088C63.0342 556.957 63.1742 556.757 63.3609 556.486C63.5569 556.215 63.7342 555.977 63.8929 555.772C63.5009 555.753 63.1415 555.669 62.8149 555.52C62.4975 555.361 62.2222 555.142 61.9889 554.862C61.7835 554.61 61.6249 554.339 61.5129 554.05C61.4102 553.751 61.3589 553.448 61.3589 553.14C61.3589 552.748 61.4382 552.379 61.5969 552.034C61.7555 551.679 61.9842 551.381 62.2829 551.138C62.6095 550.867 62.9175 550.69 63.2069 550.606C63.5055 550.522 63.9255 550.447 64.4669 550.382L64.8029 550.34L65.0269 551.586C64.4389 551.698 64.0329 551.791 63.8089 551.866C63.5942 551.931 63.3842 552.057 63.1789 552.244C63.0295 552.365 62.9082 552.519 62.8149 552.706C62.7309 552.883 62.6889 553.065 62.6889 553.252C62.6889 553.541 62.7869 553.807 62.9829 554.05C63.2349 554.349 63.5662 554.498 63.9769 554.498C64.5369 554.498 65.2229 554.213 66.0349 553.644C66.3335 553.42 66.5669 553.257 66.7349 553.154L67.4349 554.316Z" fill="#C4C4C4"/>
<path d="M104.303 560.5C103.226 560.5 102.463 560.201 102.015 559.604C101.578 559.007 101.359 558.153 101.359 557.044L101.343 550.02H102.847L102.863 557.044C102.863 557.556 102.895 557.929 102.959 558.164C103.023 558.388 103.151 558.548 103.343 558.644C103.535 558.729 103.855 558.772 104.303 558.772H104.655L104.751 559.652L104.655 560.5H104.303ZM112.578 552.308L115.042 556.1C115.415 556.665 115.602 557.252 115.602 557.86C115.602 558.479 115.415 559.007 115.042 559.444C114.722 559.828 114.263 560.111 113.666 560.292C113.079 560.463 112.295 560.548 111.314 560.548C110.375 560.548 109.474 560.388 108.61 560.068C107.735 560.356 106.786 560.5 105.762 560.5H104.498V558.772H105.954C106.178 558.772 106.349 558.767 106.466 558.756C105.847 558.137 105.538 557.428 105.538 556.628C105.538 556.031 105.677 555.481 105.954 554.98C106.231 554.468 106.61 554.063 107.09 553.764C107.57 553.465 108.098 553.316 108.674 553.316C109.229 553.316 109.741 553.465 110.21 553.764C110.69 554.052 111.069 554.452 111.346 554.964C111.623 555.465 111.762 556.015 111.762 556.612C111.762 557.433 111.453 558.164 110.834 558.804H111.17C112.695 558.804 113.602 558.649 113.89 558.34C114.007 558.201 114.066 558.047 114.066 557.876C114.066 557.631 113.959 557.343 113.746 557.012L111.298 553.252L112.578 552.308ZM107.042 556.692C107.042 557.076 107.175 557.417 107.442 557.716C107.709 558.004 108.087 558.239 108.578 558.42C109.111 558.239 109.522 558.004 109.81 557.716C110.098 557.417 110.242 557.076 110.242 556.692C110.242 556.201 110.098 555.801 109.81 555.492C109.522 555.172 109.138 555.012 108.658 555.012C108.167 555.012 107.773 555.172 107.474 555.492C107.186 555.801 107.042 556.201 107.042 556.692ZM119.035 562.852C119.76 562.852 120.315 562.772 120.699 562.612C121.093 562.452 121.365 562.201 121.515 561.86C121.664 561.529 121.739 561.076 121.739 560.5H120.107C119.179 560.5 118.432 560.223 117.867 559.668C117.301 559.113 117.019 558.34 117.019 557.348C117.019 556.665 117.147 556.047 117.403 555.492C117.669 554.937 118.032 554.505 118.491 554.196C118.96 553.876 119.493 553.716 120.091 553.716C120.731 553.716 121.285 553.871 121.755 554.18C122.235 554.479 122.603 554.905 122.859 555.46C123.125 556.004 123.259 556.633 123.259 557.348V558.772H124.139L124.251 559.652L124.139 560.5H123.259C123.259 561.748 122.923 562.74 122.251 563.476C121.579 564.212 120.507 564.58 119.035 564.58H117.259V562.852H119.035ZM118.507 557.316C118.507 557.849 118.635 558.233 118.891 558.468C119.147 558.692 119.552 558.804 120.107 558.804H121.739V557.332C121.739 556.724 121.605 556.249 121.339 555.908C121.072 555.567 120.656 555.396 120.091 555.396C119.579 555.396 119.184 555.572 118.907 555.924C118.64 556.265 118.507 556.729 118.507 557.316ZM124.014 558.772H126.431C127.444 558.772 127.951 558.431 127.951 557.748C127.951 557.471 127.903 557.044 127.807 556.468C127.711 555.881 127.604 555.332 127.487 554.82L128.943 554.452C129.071 554.985 129.188 555.577 129.295 556.228C129.412 556.879 129.471 557.391 129.471 557.764C129.471 558.233 129.359 558.681 129.135 559.108C128.911 559.524 128.575 559.86 128.127 560.116C127.679 560.372 127.129 560.5 126.479 560.5H124.014V558.772ZM124.383 562.804H126.079V564.5H124.383V562.804ZM127.295 562.804H128.991V564.5H127.295V562.804ZM137.306 556.084L137.45 556.404C137.855 557.289 138.207 557.908 138.506 558.26C138.815 558.601 139.194 558.772 139.642 558.772H139.914L139.994 559.684L139.914 560.5H139.642C139.172 560.5 138.751 560.399 138.378 560.196C138.004 559.993 137.658 559.695 137.338 559.3C136.74 560.1 135.844 560.5 134.65 560.5H133.834C132.81 560.5 131.887 560.191 131.066 559.572L131.818 558.148C131.839 558.159 131.946 558.223 132.138 558.34C132.34 558.457 132.591 558.559 132.89 558.644C133.199 558.729 133.514 558.772 133.834 558.772H134.65C135.023 558.772 135.327 558.735 135.562 558.66C135.807 558.585 135.999 558.452 136.138 558.26C136.223 558.143 136.266 558.009 136.266 557.86C136.266 557.625 136.154 557.279 135.93 556.82L134.234 553.14L135.61 552.404L137.306 556.084ZM139.748 558.772H141.78C142.793 558.772 143.3 558.431 143.3 557.748C143.3 557.471 143.252 557.044 143.156 556.468C143.06 555.881 142.953 555.332 142.836 554.82L144.292 554.452C144.42 554.985 144.537 555.577 144.644 556.228C144.761 556.879 144.82 557.391 144.82 557.764C144.82 558.233 144.708 558.681 144.484 559.108C144.26 559.524 143.924 559.86 143.476 560.116C143.028 560.372 142.479 560.5 141.828 560.5H139.748V558.772ZM139.028 562.788H140.724V564.484H139.028V562.788ZM141.94 562.788H143.636V564.484H141.94V562.788ZM148.441 562.804C149.166 562.804 149.721 562.724 150.105 562.564C150.5 562.404 150.772 562.153 150.921 561.812C151.07 561.481 151.145 561.028 151.145 560.452H149.513C148.585 560.452 147.838 560.175 147.273 559.62C146.708 559.065 146.425 558.292 146.425 557.3C146.425 556.617 146.553 555.999 146.809 555.444C147.076 554.889 147.438 554.457 147.897 554.148C148.366 553.828 148.9 553.668 149.497 553.668C150.137 553.668 150.692 553.823 151.161 554.132C151.641 554.431 152.009 554.857 152.265 555.412C152.532 555.956 152.665 556.585 152.665 557.3V560.436C152.665 561.684 152.329 562.676 151.657 563.412C150.985 564.159 149.913 564.532 148.441 564.532H146.665V562.804H148.441ZM147.913 557.268C147.913 557.801 148.041 558.185 148.297 558.42C148.553 558.644 148.958 558.756 149.513 558.756H151.145V557.284C151.145 556.676 151.012 556.201 150.745 555.86C150.478 555.519 150.062 555.348 149.497 555.348C148.985 555.348 148.59 555.524 148.313 555.876C148.046 556.217 147.913 556.681 147.913 557.268ZM159.972 562.804C160.698 562.804 161.252 562.724 161.636 562.564C162.031 562.404 162.303 562.153 162.452 561.812C162.602 561.481 162.676 561.028 162.676 560.452H161.044C160.116 560.452 159.37 560.175 158.804 559.62C158.239 559.065 157.956 558.292 157.956 557.3C157.956 556.617 158.084 555.999 158.34 555.444C158.607 554.889 158.97 554.457 159.428 554.148C159.898 553.828 160.431 553.668 161.028 553.668C161.668 553.668 162.223 553.823 162.692 554.132C163.172 554.431 163.54 554.857 163.796 555.412C164.063 555.956 164.196 556.585 164.196 557.3V560.436C164.196 561.684 163.86 562.676 163.188 563.412C162.516 564.159 161.444 564.532 159.972 564.532H158.196V562.804H159.972ZM159.444 557.268C159.444 557.801 159.572 558.185 159.828 558.42C160.084 558.644 160.49 558.756 161.044 558.756H162.676V557.284C162.676 556.676 162.543 556.201 162.276 555.86C162.01 555.519 161.594 555.348 161.028 555.348C160.516 555.348 160.122 555.524 159.844 555.876C159.578 556.217 159.444 556.681 159.444 557.268ZM172.96 560.5C171.882 560.5 171.12 560.201 170.672 559.604C170.234 559.007 170.016 558.153 170.016 557.044L170 550.02H171.504L171.52 557.044C171.52 557.556 171.552 557.929 171.616 558.164C171.68 558.388 171.808 558.548 172 558.644C172.192 558.729 172.512 558.772 172.96 558.772H173.312L173.408 559.652L173.312 560.5H172.96ZM181.234 552.308L183.698 556.1C184.072 556.665 184.258 557.252 184.258 557.86C184.258 558.479 184.072 559.007 183.698 559.444C183.378 559.828 182.92 560.111 182.322 560.292C181.736 560.463 180.952 560.548 179.97 560.548C179.032 560.548 178.13 560.388 177.266 560.068C176.392 560.356 175.442 560.5 174.418 560.5H173.154V558.772H174.61C174.834 558.772 175.005 558.767 175.122 558.756C174.504 558.137 174.194 557.428 174.194 556.628C174.194 556.031 174.333 555.481 174.61 554.98C174.888 554.468 175.266 554.063 175.746 553.764C176.226 553.465 176.754 553.316 177.33 553.316C177.885 553.316 178.397 553.465 178.866 553.764C179.346 554.052 179.725 554.452 180.002 554.964C180.28 555.465 180.418 556.015 180.418 556.612C180.418 557.433 180.109 558.164 179.49 558.804H179.826C181.352 558.804 182.258 558.649 182.546 558.34C182.664 558.201 182.722 558.047 182.722 557.876C182.722 557.631 182.616 557.343 182.402 557.012L179.954 553.252L181.234 552.308ZM175.698 556.692C175.698 557.076 175.832 557.417 176.098 557.716C176.365 558.004 176.744 558.239 177.234 558.42C177.768 558.239 178.178 558.004 178.466 557.716C178.754 557.417 178.898 557.076 178.898 556.692C178.898 556.201 178.754 555.801 178.466 555.492C178.178 555.172 177.794 555.012 177.314 555.012C176.824 555.012 176.429 555.172 176.13 555.492C175.842 555.801 175.698 556.201 175.698 556.692ZM188.043 556.484C187.467 557.689 187.179 558.799 187.179 559.812C187.179 560.74 187.403 561.471 187.851 562.004C188.299 562.537 188.998 562.804 189.947 562.804H191.547C192.251 562.804 192.795 562.729 193.179 562.58C193.563 562.431 193.83 562.185 193.979 561.844C194.139 561.513 194.219 561.049 194.219 560.452V555.428H195.739V557.492C195.739 557.951 195.84 558.281 196.043 558.484C196.246 558.676 196.566 558.772 197.003 558.772C197.44 558.772 197.76 558.676 197.963 558.484C198.166 558.281 198.267 557.951 198.267 557.492V555.428H199.771V557.492C199.771 558.345 200.198 558.772 201.051 558.772C201.467 558.772 201.771 558.676 201.963 558.484C202.155 558.281 202.251 557.951 202.251 557.492V555.428H203.755V557.508C203.755 557.967 203.856 558.292 204.059 558.484C204.262 558.676 204.598 558.772 205.067 558.772H206.107L206.187 559.684L206.107 560.5H205.083C204.678 560.5 204.299 560.415 203.947 560.244C203.595 560.073 203.302 559.828 203.067 559.508C202.875 559.817 202.582 560.063 202.187 560.244C201.803 560.415 201.424 560.5 201.051 560.5C200.656 560.5 200.283 560.415 199.931 560.244C199.579 560.073 199.27 559.828 199.003 559.508C198.8 559.817 198.518 560.063 198.155 560.244C197.792 560.415 197.403 560.5 196.987 560.5C196.55 560.5 196.134 560.393 195.739 560.18V560.452C195.739 561.721 195.398 562.719 194.715 563.444C194.043 564.169 192.987 564.532 191.547 564.532H189.947C189.04 564.532 188.262 564.313 187.611 563.876C186.971 563.439 186.486 562.863 186.155 562.148C185.835 561.433 185.675 560.655 185.675 559.812C185.675 559.119 185.776 558.431 185.979 557.748C186.192 557.055 186.459 556.404 186.779 555.796L188.043 556.484ZM213.503 550.9L208.655 553.044L210.879 555.86L210.927 555.924C211.631 556.831 212.143 557.46 212.463 557.812C212.783 558.164 213.082 558.415 213.359 558.564C213.637 558.703 213.983 558.772 214.399 558.772H214.703L214.799 559.62L214.703 560.5H214.399C213.791 560.5 213.274 560.388 212.847 560.164C212.431 559.929 211.962 559.524 211.439 558.948C211.258 559.417 210.959 559.796 210.543 560.084C210.127 560.361 209.605 560.5 208.975 560.5H205.951V558.772H208.991C209.397 558.772 209.701 558.703 209.903 558.564C210.117 558.425 210.223 558.233 210.223 557.988C210.223 557.679 210.079 557.359 209.791 557.028L207.007 553.7L207.439 551.732L212.895 549.332L213.503 550.9ZM222.193 560.5H214.545V558.772H216.849C216.39 558.228 216.161 557.609 216.161 556.916C216.161 556.361 216.294 555.855 216.561 555.396C216.828 554.927 217.19 554.553 217.649 554.276C218.108 553.999 218.604 553.86 219.137 553.86C219.638 553.86 220.054 553.935 220.385 554.084C220.726 554.223 221.142 554.463 221.633 554.804L221.937 554.996L221.217 556.244C220.652 555.924 220.246 555.716 220.001 555.62C219.766 555.513 219.5 555.46 219.201 555.46C218.774 555.46 218.406 555.599 218.097 555.876C217.788 556.153 217.633 556.495 217.633 556.9C217.633 557.455 217.878 557.908 218.369 558.26C218.87 558.601 219.644 558.772 220.689 558.772H222.193V560.5Z" fill="#D7D8DA"/>
</svg>
