<svg width="24" height="24" viewBox="0 0 24 24" fill="none" xmlns="http://www.w3.org/2000/svg">
<path fill-rule="evenodd" clip-rule="evenodd" d="M19.5505 3.16516C19.8311 3.35021 20 3.66386 20 4V18C20 18.3138 19.8527 18.6094 19.6022 18.7984C19.3517 18.9873 19.027 19.0477 18.7253 18.9615L4.72528 14.9615C4.29598 14.8389 4 14.4465 4 14V10C4 9.59998 4.2384 9.23844 4.60608 9.08086L18.6061 3.08086C18.915 2.94845 19.2699 2.98012 19.5505 3.16516ZM6 10.6594V13.2457L18 16.6743V5.51654L6 10.6594Z" fill="#45484B"/>
<path fill-rule="evenodd" clip-rule="evenodd" d="M1 10.5C1 9.11929 2.11929 8 3.5 8C4.88071 8 6 9.11929 6 10.5V13.5C6 14.8807 4.88071 16 3.5 16C2.11929 16 1 14.8807 1 13.5V10.5ZM3.5 10C3.22386 10 3 10.2239 3 10.5V13.5C3 13.7761 3.22386 14 3.5 14C3.77614 14 4 13.7761 4 13.5V10.5C4 10.2239 3.77614 10 3.5 10Z" fill="#45484B"/>
<path fill-rule="evenodd" clip-rule="evenodd" d="M18 3.5C18 2.11929 19.1193 1 20.5 1C21.8807 1 23 2.11929 23 3.5V18.5C23 19.8807 21.8807 21 20.5 21C19.1193 21 18 19.8807 18 18.5V3.5ZM20.5 3C20.2239 3 20 3.22386 20 3.5V18.5C20 18.7761 20.2239 19 20.5 19C20.7761 19 21 18.7761 21 18.5V3.5C21 3.22386 20.7761 3 20.5 3Z" fill="#45484B"/>
<path fill-rule="evenodd" clip-rule="evenodd" d="M7.5 18V15H9.5V18C9.5 18.5523 9.94772 19 10.5 19H12C12.5523 19 13 18.5523 13 18V16.5H15V18C15 19.6569 13.6569 21 12 21H10.5C8.84315 21 7.5 19.6569 7.5 18Z" fill="#45484B"/>
</svg>
