<svg width="20" height="20" viewBox="0 0 20 20" fill="none" xmlns="http://www.w3.org/2000/svg">
<path fill-rule="evenodd" clip-rule="evenodd" d="M10 2C5.58172 2 2 5.58172 2 10C2 14.4183 5.58172 18 10 18C14.4183 18 18 14.4183 18 10C18 5.58172 14.4183 2 10 2ZM0 10C0 4.47715 4.47715 0 10 0C15.5228 0 20 4.47715 20 10C20 15.5228 15.5228 20 10 20C4.47715 20 0 15.5228 0 10Z" fill="#595C61"/>
<path fill-rule="evenodd" clip-rule="evenodd" d="M10 6C8.89543 6 8 6.89543 8 8C8 9.10457 8.89543 10 10 10C11.1046 10 12 9.10457 12 8C12 6.89543 11.1046 6 10 6ZM6 8C6 5.79086 7.79086 4 10 4C12.2091 4 14 5.79086 14 8C14 10.2091 12.2091 12 10 12C7.79086 12 6 10.2091 6 8Z" fill="#595C61"/>
<path fill-rule="evenodd" clip-rule="evenodd" d="M9.99993 14.5C7.78034 14.5 5.84095 15.7047 4.80201 17.5007L3.0708 16.4993C4.45253 14.1107 7.03754 12.5 9.99993 12.5C12.9623 12.5 15.5473 14.1107 16.9291 16.4993L15.1978 17.5007C14.1589 15.7047 12.2195 14.5 9.99993 14.5Z" fill="#595C61"/>
</svg>
